<?xml version="1.0" encoding="utf-8"?>
<!-- Generator: Adobe Illustrator 19.1.0, SVG Export Plug-In . SVG Version: 6.00 Build 0)  -->
<svg version="1.1" id="Layer_1" xmlns="http://www.w3.org/2000/svg" xmlns:xlink="http://www.w3.org/1999/xlink" x="0px" y="0px"
	 viewBox="-279 402.9 36 36" style="enable-background:new -279 402.9 36 36;" xml:space="preserve">
<style type="text/css">
	.st0{fill:#D3C089;}
</style>
<path class="st0" d="M-261.1,404.6c-8.9,0-16.2,7.3-16.2,16.2s7.3,16.2,16.2,16.2c8.9,0,16.2-7.3,16.2-16.2
	S-252.1,404.6-261.1,404.6z M-269.8,414.4h17.4c1,0,1.8,0.7,1.9,1.6l-10.6,4.5l-10.5-4.5C-271.6,415.1-270.8,414.4-269.8,414.4
	L-269.8,414.4z M-250.6,426.4c0,1-0.8,1.7-1.9,1.7h-17.4c-1,0-1.9-0.8-1.9-1.7v-9.6l10.6,4.5l0,0l10.6-4.5
	C-250.6,416.8-250.6,426.4-250.6,426.4z"/>
</svg>
