<?xml version="1.0" encoding="utf-8"?>
<!-- Generator: Adobe Illustrator 19.1.0, SVG Export Plug-In . SVG Version: 6.00 Build 0)  -->
<svg version="1.1" id="Layer_1" xmlns="http://www.w3.org/2000/svg" xmlns:xlink="http://www.w3.org/1999/xlink" x="0px" y="0px"
	 viewBox="-279 402.9 36 36" style="enable-background:new -279 402.9 36 36;" xml:space="preserve">
<style type="text/css">
	.st0{fill:#D3C089;}
</style>
<path class="st0" d="M-261.1,404c-8.9,0-16.2,7.3-16.2,16.2s7.3,16.2,16.2,16.2c8.9,0,16.2-7.3,16.2-16.2S-252.1,404-261.1,404z
	 M-265.8,423.8c-2,0-3.6-1.6-3.6-3.6c0-2,1.6-3.6,3.6-3.6c2,0,3.6,1.6,3.6,3.6C-262.1,422.2-263.8,423.8-265.8,423.8z M-256.4,423.8
	c-2,0-3.6-1.6-3.6-3.6c0-2,1.6-3.6,3.6-3.6c2,0,3.6,1.6,3.6,3.6C-252.8,422.2-254.4,423.8-256.4,423.8z"/>
</svg>
