<?xml version="1.0" encoding="utf-8"?>
<!-- Generator: Adobe Illustrator 19.1.0, SVG Export Plug-In . SVG Version: 6.00 Build 0)  -->
<svg version="1.1" id="Layer_1" xmlns="http://www.w3.org/2000/svg" xmlns:xlink="http://www.w3.org/1999/xlink" x="0px" y="0px"
	 viewBox="-102 59.9 36 36" style="enable-background:new -102 59.9 36 36;" xml:space="preserve">
<style type="text/css">
	.st0{fill:#FCFAFA;}
</style>
<path class="st0" d="M-84.1,61.6c-8.9,0-16.2,7.3-16.2,16.2S-93,94-84.1,94c8.9,0,16.2-7.3,16.2-16.2S-75.1,61.6-84.1,61.6z
	 M-77,82.7c0,1.2-1,2.2-2.2,2.2h-9.7c-1.2,0-2.2-1-2.2-2.2V77h2.9c-0.1,0.3-0.1,0.5-0.1,0.8c0,2.4,1.9,4.3,4.3,4.3
	c2.4,0,4.3-1.9,4.3-4.3c0-0.3,0-0.6-0.1-0.8h2.9V82.7z M-86.7,77.8c0-1.5,1.2-2.6,2.6-2.6c1.5,0,2.6,1.2,2.6,2.6
	c0,1.5-1.2,2.6-2.6,2.6C-85.5,80.4-86.7,79.3-86.7,77.8z M-77,75.3h-3.6c-0.8-1.1-2-1.8-3.5-1.8c-1.4,0-2.7,0.7-3.5,1.8h-3.6V73
	c0-1.2,1-2.2,2.2-2.2h9.7c1.2,0,2.2,1,2.2,2.2L-77,75.3L-77,75.3z"/>
<path d="M-78.6,71.9h-1.2c-0.2,0-0.4,0.2-0.4,0.4v1.2c0,0.2,0.2,0.4,0.4,0.4h1.2c0.2,0,0.4-0.2,0.4-0.4v-1.2
	C-78.2,72.1-78.3,71.9-78.6,71.9z"/>
</svg>
